G75*
%MOIN*%
%OFA0B0*%
%FSLAX25Y25*%
%IPPOS*%
%LPD*%
%AMOC8*
5,1,8,0,0,1.08239X$1,22.5*
%
%ADD10R,0.11417X0.05512*%
%ADD11R,0.06299X0.01575*%
%ADD12R,0.10000X0.05000*%
%ADD13C,0.01000*%
%ADD14C,0.04000*%
D10*
X0036238Y0016486D03*
X0036238Y0075147D03*
D11*
X0031513Y0068454D03*
X0031513Y0064517D03*
X0031513Y0060580D03*
X0031513Y0056643D03*
X0031513Y0052706D03*
X0031513Y0048769D03*
X0031513Y0044832D03*
X0031513Y0040895D03*
X0031513Y0036958D03*
X0031513Y0033021D03*
X0031513Y0029084D03*
X0031513Y0025147D03*
X0040962Y0023178D03*
X0040962Y0027115D03*
X0040962Y0031052D03*
X0040962Y0034989D03*
X0040962Y0038927D03*
X0040962Y0042864D03*
X0040962Y0046801D03*
X0040962Y0050738D03*
X0040962Y0054675D03*
X0040962Y0058612D03*
X0040962Y0062549D03*
X0040962Y0066486D03*
D12*
X0016238Y0010816D03*
X0016238Y0017816D03*
X0016238Y0024816D03*
X0016238Y0031816D03*
X0016238Y0038816D03*
X0016238Y0045816D03*
X0016238Y0052816D03*
X0016238Y0059816D03*
X0016238Y0066816D03*
X0016238Y0073816D03*
X0016238Y0080816D03*
X0016238Y0087816D03*
X0036238Y0087816D03*
X0056238Y0087816D03*
X0056238Y0080816D03*
X0056238Y0073816D03*
X0056238Y0066816D03*
X0056238Y0059816D03*
X0056238Y0052816D03*
X0056238Y0045816D03*
X0056238Y0038816D03*
X0056238Y0031816D03*
X0056238Y0024816D03*
X0056238Y0017816D03*
X0056238Y0010816D03*
D13*
X0053738Y0010816D01*
X0041238Y0023316D01*
X0040962Y0023178D01*
X0041238Y0027066D02*
X0040962Y0027115D01*
X0041238Y0027066D02*
X0047488Y0027066D01*
X0047488Y0023316D01*
X0052488Y0018316D01*
X0056238Y0018316D01*
X0056238Y0017816D01*
X0056238Y0024816D02*
X0056238Y0025816D01*
X0052488Y0025816D01*
X0048738Y0029566D01*
X0048738Y0030816D01*
X0041238Y0030816D01*
X0040962Y0031052D01*
X0041238Y0034566D02*
X0040962Y0034989D01*
X0041238Y0034566D02*
X0056238Y0034566D01*
X0056238Y0031816D01*
X0056238Y0038816D02*
X0056238Y0039566D01*
X0041238Y0039566D01*
X0040962Y0038927D01*
X0040962Y0042864D02*
X0041238Y0043316D01*
X0056238Y0043316D01*
X0056238Y0045816D01*
X0056238Y0052066D02*
X0052488Y0052066D01*
X0048738Y0048316D01*
X0048738Y0047066D01*
X0041238Y0047066D01*
X0040962Y0046801D01*
X0040962Y0050738D02*
X0041238Y0050816D01*
X0047488Y0050816D01*
X0047488Y0054566D01*
X0052488Y0059566D01*
X0056238Y0059566D01*
X0056238Y0059816D01*
X0056238Y0065816D02*
X0052488Y0065816D01*
X0048738Y0062066D01*
X0048738Y0059566D01*
X0043738Y0054566D01*
X0041238Y0054566D01*
X0040962Y0054675D01*
X0039988Y0058316D02*
X0040962Y0058612D01*
X0039988Y0058316D02*
X0036238Y0058316D01*
X0036238Y0023316D01*
X0033738Y0020816D01*
X0028738Y0020816D01*
X0028738Y0015816D01*
X0027488Y0014566D01*
X0026238Y0018316D02*
X0018738Y0010816D01*
X0016238Y0010816D01*
X0016238Y0017816D02*
X0016238Y0018316D01*
X0019988Y0018316D01*
X0023738Y0022066D01*
X0023738Y0024566D01*
X0026238Y0027066D01*
X0026238Y0028316D01*
X0031238Y0028316D01*
X0031513Y0029084D01*
X0031513Y0033021D02*
X0031238Y0033316D01*
X0024988Y0033316D01*
X0024988Y0030816D01*
X0019988Y0025816D01*
X0016238Y0025816D01*
X0016238Y0024816D01*
X0016238Y0031816D02*
X0016238Y0032066D01*
X0019988Y0032066D01*
X0023738Y0035816D01*
X0023738Y0037066D01*
X0031238Y0037066D01*
X0031513Y0036958D01*
X0031238Y0040816D02*
X0031513Y0040895D01*
X0031238Y0040816D02*
X0016238Y0040816D01*
X0016238Y0038816D01*
X0016238Y0044566D02*
X0016238Y0045816D01*
X0016238Y0044566D02*
X0031238Y0044566D01*
X0031513Y0044832D01*
X0031238Y0048316D02*
X0031513Y0048769D01*
X0031238Y0048316D02*
X0023738Y0048316D01*
X0019988Y0052066D01*
X0016238Y0052066D01*
X0016238Y0052816D01*
X0016238Y0059566D02*
X0016238Y0059816D01*
X0016238Y0059566D02*
X0019988Y0059566D01*
X0023738Y0055816D01*
X0023738Y0053316D01*
X0031238Y0053316D01*
X0031513Y0052706D01*
X0031513Y0056643D02*
X0031238Y0057066D01*
X0026238Y0057066D01*
X0026238Y0059566D01*
X0019988Y0065816D01*
X0016238Y0065816D01*
X0016238Y0066816D01*
X0016238Y0073316D02*
X0016238Y0073816D01*
X0016238Y0073316D02*
X0019988Y0073316D01*
X0023738Y0069566D01*
X0023738Y0065816D01*
X0028738Y0060816D01*
X0031238Y0060816D01*
X0031513Y0060580D01*
X0031513Y0064517D02*
X0031238Y0064566D01*
X0028738Y0064566D01*
X0026238Y0067066D01*
X0026238Y0073316D01*
X0018738Y0080816D01*
X0016238Y0080816D01*
X0016238Y0087066D02*
X0016238Y0087816D01*
X0016238Y0087066D02*
X0019988Y0087066D01*
X0028738Y0078316D01*
X0028738Y0070816D01*
X0031238Y0068316D01*
X0031513Y0068454D01*
X0036238Y0068316D02*
X0036238Y0063316D01*
X0039988Y0063316D01*
X0040962Y0062549D01*
X0040962Y0066486D02*
X0041238Y0067066D01*
X0048738Y0067066D01*
X0048738Y0083316D01*
X0052488Y0087066D01*
X0056238Y0087066D01*
X0056238Y0087816D01*
X0056238Y0080816D02*
X0058738Y0080816D01*
X0063738Y0085816D01*
X0063738Y0092066D01*
X0049988Y0092066D01*
X0046238Y0088316D01*
X0046238Y0070816D01*
X0038738Y0070816D01*
X0036238Y0068316D01*
X0036238Y0075147D02*
X0036238Y0080816D01*
X0036238Y0087816D01*
X0056238Y0073816D02*
X0056238Y0073316D01*
X0059988Y0073316D01*
X0063738Y0069566D01*
X0063738Y0030816D01*
X0064988Y0029566D01*
X0056238Y0052066D02*
X0056238Y0052816D01*
X0056238Y0065816D02*
X0056238Y0066816D01*
X0031513Y0025147D02*
X0031238Y0024566D01*
X0027488Y0024566D01*
X0027488Y0023316D01*
X0026238Y0022066D01*
X0026238Y0018316D01*
X0036238Y0016486D02*
X0036238Y0015816D01*
X0044988Y0015816D01*
X0044988Y0014566D01*
D14*
X0044988Y0014566D03*
X0027488Y0014566D03*
X0064988Y0029566D03*
X0036238Y0080816D03*
M02*
